<svg width="20" height="16" viewBox="0 0 20 16" fill="none" xmlns="http://www.w3.org/2000/svg">
<path d="M9.93 3.5L8.6 3.59C7.74 2.57 5.33 0 2.93 0C2.93 0 0.96 2.96 2.89 6.91C2.34 7.74 2 8.17 1.93 9.16L0 9.45L0.21 10.43L1.97 10.17L2.11 10.88L0.54 11.82L1.01 12.71L2.46 11.82C3.61 14.26 6.52 15.5 9.93 15.5C13.34 15.5 16.25 14.26 17.4 11.82L18.85 12.71L19.32 11.82L17.75 10.88L17.89 10.17L19.65 10.43L19.86 9.45L17.93 9.16C17.86 8.17 17.52 7.74 16.97 6.91C18.9 2.96 16.93 0 16.93 0C14.53 0 12.12 2.57 11.26 3.59L9.93 3.5ZM6.93 6.5C7.19522 6.5 7.44957 6.60536 7.63711 6.79289C7.82464 6.98043 7.93 7.23478 7.93 7.5C7.93 7.76522 7.82464 8.01957 7.63711 8.20711C7.44957 8.39464 7.19522 8.5 6.93 8.5C6.66478 8.5 6.41043 8.39464 6.22289 8.20711C6.03536 8.01957 5.93 7.76522 5.93 7.5C5.93 7.23478 6.03536 6.98043 6.22289 6.79289C6.41043 6.60536 6.66478 6.5 6.93 6.5M12.93 6.5C13.1952 6.5 13.4496 6.60536 13.6371 6.79289C13.8246 6.98043 13.93 7.23478 13.93 7.5C13.93 7.76522 13.8246 8.01957 13.6371 8.20711C13.4496 8.39464 13.1952 8.5 12.93 8.5C12.6648 8.5 12.4104 8.39464 12.2229 8.20711C12.0354 8.01957 11.93 7.76522 11.93 7.5C11.93 7.23478 12.0354 6.98043 12.2229 6.79289C12.4104 6.60536 12.6648 6.5 12.93 6.5M8.93 9.5H10.93L10.23 10.89C10.43 11.53 10.99 12 11.68 12C12.0778 12 12.4594 11.842 12.7407 11.5607C13.022 11.2794 13.18 10.8978 13.18 10.5H13.68C13.68 11.0304 13.4693 11.5391 13.0942 11.9142C12.7191 12.2893 12.2104 12.5 11.68 12.5C10.93 12.5 10.28 12.09 9.93 11.5C9.58 12.09 8.93 12.5 8.18 12.5C7.64957 12.5 7.14086 12.2893 6.76579 11.9142C6.39071 11.5391 6.18 11.0304 6.18 10.5H6.68C6.68 10.8978 6.83804 11.2794 7.11934 11.5607C7.40064 11.842 7.78218 12 8.18 12C8.87 12 9.43 11.53 9.63 10.89L8.93 9.5Z" fill="black"/>
</svg>
